<svg xmlns="http://www.w3.org/2000/svg" viewBox="0 0 350 290"><path fill="currentColor" fill-rule="evenodd" d="M248.272 152.217c-.565.706-1.359 2.408-1.764 3.783-4.019 13.639-17.087 28.372-31.008 34.962-4.95 2.343-9.675 4.596-10.5 5.008s-1.5 1.325-1.5 2.03.675 1.619 1.5 2.03c.825.412 5.5 2.651 10.389 4.977 12.575 5.981 21.694 15.074 27.573 27.493 2.343 4.95 4.596 9.675 5.008 10.5s1.325 1.5 2.03 1.5 1.619-.675 2.03-1.5c.412-.825 2.651-5.5 4.977-10.389 5.981-12.575 15.074-21.694 27.493-27.573 4.95-2.343 9.675-4.596 10.5-5.008s1.5-1.325 1.5-2.03-.675-1.619-1.5-2.03c-.825-.412-5.5-2.651-10.389-4.977-12.575-5.981-21.694-15.074-27.573-27.493-2.343-4.95-4.58-9.648-4.97-10.44-.991-2.008-2.58-2.361-3.796-.843"/></svg>