<svg xmlns="http://www.w3.org/2000/svg" viewBox="0 0 1792 2340"><path fill="currentColor" fill-rule="evenodd" d="M845.5 99.514c-27.047 4.961-55.597 19.445-71.838 36.445-52.882 55.35-47.182 137.614 12.838 185.288 5.5 4.369 10.9 9.358 12 11.087 2.042 3.209 4.529 241.334 3.114 298.166-1 40.168-11.2 79.995-31.926 124.649-16.339 35.204-37.133 57.829-97.881 106.501-29.471 23.613-35.712 28.208-150.307 110.681-14.85 10.687-35.843 25.897-46.65 33.8a7204 7204 0 0 1-39 28.279c-30.352 21.82-30.164 21.444-16.157 32.332 4.781 3.717 15.589 12.279 24.018 19.027 37.745 30.219 53.537 40.731 61.189 40.731 6.564 0 2.247 2.722 52.949-33.386 19.058-13.573 48.601-34.476 65.651-46.451C822.865 906.632 866.35 860.809 900.509 754.76c20.807-64.596 23.57-92.424 22.365-225.26-1.025-113.106-.967-185.624.151-189.652 1.091-3.927 4.78-7.602 14.778-14.721 40.59-28.905 60.729-90.577 45.151-138.266-19.435-59.491-79.886-97.906-137.454-87.347m256.597 291.029c-110.447 19.414-142.794 156.385-53.316 225.761 15.484 12.004 15.252 10.398 13.306 92.196-3.262 137.188-26.849 198.313-108.587 281.395-32.13 32.658-31.732 32.439-51.051 28.091-47.951-10.792-101.795 12.147-130.81 55.731-14.297 21.476-19.069 38.48-18.87 67.239.182 26.162.457 25.461-16.067 40.966-46.914 44.018-89.496 95.654-105.74 128.22-9.867 19.781-11.503 19.347-34.283-9.091-25.345-31.641-56.743-60.731-97.928-90.731-10.312-7.512-25.837-19.253-34.5-26.092s-27.423-21.275-41.69-32.081c-85.689-64.904-108.844-84.799-120.403-103.445-30.793-49.675-16.838-104.344 35.609-139.503 10.249-6.871 29.598-21.208 35.269-26.132 3.044-2.644 7.435-5.777 9.757-6.961 4.11-2.097 20.198-13.332 31.233-21.812 16.155-12.415 60.82-45.697 69.479-51.773a2027 2027 0 0 0 20-14.259c5.497-3.98 20.12-14.291 32.495-22.911s30.386-21.602 40.024-28.847 23.588-17.367 31-22.494c67.116-46.427 103.313-100.751 114.089-171.221 3.599-23.542 3.513-130.502-.111-138.039-2.87-5.967-7.104-2.375-12.407 10.526C677.077 491.955 633.129 542.631 534 616.602c-76.459 57.055-82.63 61.586-149 109.405-39.593 28.527-63.468 46.012-80.5 58.955-9.9 7.523-25.875 19.666-35.5 26.983-71.336 54.23-102.419 108.129-104.703 181.555-2.769 89 32.81 139.41 171.703 243.278C532.961 1384.071 562.204 1426.7 573.503 1583c3.474 48.059 3.361 48.138-30.106 21.291-12.043-9.661-34.272-26.849-49.397-38.195s-44.15-33.912-64.5-50.145a37026 37026 0 0 0-68.488-54.483c-17.318-13.732-36.05-29.469-41.626-34.97-36.32-35.831-42.165-81.637-14.974-117.333 9.213-12.095 10.039-10.91-26.475-37.975-16.246-12.042-36.04-26.964-43.987-33.161-23.081-17.997-22.171-18.317-40.958 14.377-37.223 64.777-40.88 134.804-10.241 196.094 9.344 18.692 13.553 24.092 22.999 29.507 2.887 1.656 5.252 3.119 5.253 3.252.099 6.933 12.679 25.679 23.122 34.454a8941 8941 0 0 1 23.226 19.635c8.332 7.067 21.224 17.384 28.649 22.926a61255 61255 0 0 0 21.371 15.947c4.33 3.228 10.63 7.124 14 8.658 3.661 1.666 7.669 4.501 9.955 7.041 6.788 7.546 16.916 16.169 22.045 18.768 2.749 1.393 7.272 4.097 10.05 6.008 4.679 3.219 5.438 3.427 10.274 2.823 8.971-1.121 15.42 3.592 18.903 13.814.953 2.798 3.009 5.846 5.236 7.762 2.016 1.736 5.241 5.089 7.166 7.451 4.146 5.089 19.383 17.438 26.606 21.565 2.809 1.605 8.442 5.949 12.518 9.653 18.512 16.824 42.017 33.598 50.707 36.186 12.501 3.723 16.224 10.688 14.262 26.686-3.852 31.402 3.774 67.347 16.942 79.864 2.315 2.2 5.805 6.475 7.756 9.5 12.775 19.806 18.317 24.914 28.209 26 8.371.919 11.577 3.014 17.137 11.201 4.658 6.859 13.009 11.558 28.381 15.968 9.434 2.706 40.486 2.962 46.743.386 1.781-.734 6.164-1.652 9.739-2.04 4.572-.496 8.32-1.711 12.639-4.097 3.376-1.865 8.551-3.889 11.5-4.497 23.388-4.822 54.393-39.509 65.763-73.574 15.556-46.607-4.213-108.14-44.461-138.392-17.19-12.92-15.734-4.272-15.166-90.041.488-73.609.55-74.624 6.784-111.236 10.575-62.102 44.277-119.506 108.221-184.331 26.643-27.011 26.097-26.663 35.421-22.549 14.268 6.295 33.95 8.454 47.486 5.209 4.572-1.096 10.947-1.996 14.165-2 14.867-.018 43.498-13.702 59.301-28.342 23.142-21.44 37.335-62.122 34.293-98.293-1.604-19.068-2.136-18.044 17.6-33.844 44.423-35.563 81.164-81.952 108.927-137.528 3.642-7.29 6.256-10 9.645-10 3.008 0 4.212 1.267 14.802 15.585 14.953 20.216 42.365 48.613 64.648 66.972 19.555 16.112 45.786 37.198 62.843 50.518 8.751 6.834 22.476 17.571 30.5 23.861 22.862 17.921 39.685 29.9 51.089 36.377 5.775 3.28 12.899 8.151 15.831 10.825 2.931 2.674 5.887 4.862 6.568 4.862 7.368 0 11.476 2.965 18.588 13.413 6.189 9.092 8.989 12.016 22.984 24.001 38.317 32.812 50.716 65.038 40.419 105.051-9.918 38.54-34.4 59.597-238.39 205.037-100.006 71.302-117.193 85.051-136.901 109.512-51.538 63.966-64.798 115.609-58.157 226.486 2.64 44.076 5.196 48.445 15.079 25.778 41.136-94.35 100.732-161.167 212.479-238.222 8.25-5.689 17.7-12.432 21-14.984 3.3-2.553 9.825-7.397 14.5-10.764 12.043-8.675 13.865-10.837 14.998-17.796 1.014-6.23 3.321-9.568 8.46-12.24 1.627-.846 6.462-4.391 10.746-7.877 11.792-9.599 13.687-10.33 22.993-8.873 6.183.968 8.194-.12 32.171-17.406a14176 14176 0 0 1 43.132-30.929c13.2-9.425 28.687-20.635 34.417-24.912a46753 46753 0 0 1 30.5-22.731c34.354-25.584 55.731-48.596 57.729-62.146 1.572-10.661 3.31-13.396 9.85-15.505 21.345-6.882 38.405-78.187 30.957-129.393-11.168-76.784-39.238-116.252-130.965-184.142-7.431-5.5-23.856-18.247-36.5-28.326s-34.238-27.033-47.988-37.676c-86.617-67.048-100.08-78.776-122.656-106.856-51.4-63.931-69.806-119.436-69.835-210.595-.013-40.516-5.178-41.153 57.491 7.093 10.45 8.045 28.45 21.878 40 30.741s27.975 21.835 36.5 28.827c24.429 20.036 65.699 51.897 87 67.167 58.45 41.9 75.826 95.246 46.158 141.713-7.352 11.514-1.232 19.987 19.104 26.451 5.369 1.707 10.544 3.107 11.5 3.113 7.763.043 17.546 8.921 19.617 17.802 1.805 7.738 3.134 9.833 9.742 15.356 2.85 2.383 7.043 5.988 9.317 8.012s6.419 4.581 9.211 5.682 6.601 2.93 8.464 4.066c7.428 4.528 12.415 1.458 21.587-13.288 63.76-102.519 38.544-211.088-68.215-293.7-13.192-10.207-39.96-30.941-59.485-46.074s-42.25-32.682-50.5-38.998c-13.8-10.565-22.381-17.267-57.5-44.907-6.875-5.41-23.975-18.696-38-29.523-39.117-30.197-35.877-25.469-36.422-53.15-.653-33.116-5.507-50.143-21.321-74.788-26.447-41.216-77.395-64.178-124.16-55.957m144.253 756.78c-2.667 1.828-12.95 9.167-22.85 16.309-9.9 7.141-25.297 18.229-34.216 24.64-8.919 6.41-21.744 15.879-28.5 21.042-14.188 10.842-63.238 46.555-88.784 64.643-133.492 94.52-184.635 151.953-215.982 242.543-21.25 61.41-23.108 84.345-22.989 283.762.072 121.114-.088 136.179-1.468 138.285-2.263 3.454-5.129 5.951-13.914 12.124-32.285 22.686-51.195 63.13-49.396 105.649 1.025 24.241 5.083 34.692 15.462 39.824 6.683 3.305 6.936 3.577 16.521 17.856 12.292 18.311 18.818 23.956 38.266 33.099 29.744 13.982 76.419 20.223 89.665 11.989 6.724-4.18 9.705-4.685 15.219-2.579 5.725 2.186 6.474 1.976 22.122-6.221 16.896-8.852 25.316-16.914 32.021-30.661 2.448-5.02 6.256-12.052 8.462-15.627 26.725-43.307 10.347-113.848-34.989-150.698-15.644-12.716-14.38-8.569-15.179-49.79-.755-38.89-.134-253.852.773-268.012.318-4.95 1.66-14.885 2.984-22.078 1.323-7.193 3.291-18.893 4.372-26 1.35-8.873 3.239-16.369 6.029-23.922 2.234-6.05 5.435-14.825 7.112-19.5 4.441-12.378 12.814-28.944 20.907-41.366 3.894-5.977 7.957-12.586 9.029-14.687s7.167-9.361 13.545-16.133c6.906-7.333 14.697-16.964 19.262-23.81 10.487-15.727 12.336-17.691 17.447-18.537 5.889-.976 7.461-1.931 13.719-8.337 3.025-3.096 7.75-6.864 10.5-8.372s16.025-10.843 29.5-20.744 31.025-22.645 39-28.32c21.765-15.488 50.363-36.134 60.5-43.678 4.95-3.684 14.4-10.659 21-15.501s18.075-13.624 25.5-19.515c12.265-9.732 41.118-30.739 72.5-52.787 24.944-17.525 25.464-15.584-11.639-43.501-68.827-51.788-62.054-47.868-71.511-41.389"/></svg>