<svg xmlns="http://www.w3.org/2000/svg" viewBox="0 0 1792 2340"><path fill="currentColor" fill-rule="evenodd" d="M845.5 99.514c-36.325 6.663-67.578 26.284-85.632 53.763-15.942 24.263-22.328 44.204-22.168 69.223.258 40.341 16.405 73.016 48.8 98.747 5.5 4.369 10.9 9.358 12 11.087 1.965 3.088 2.014 5.56 2.794 141.155.862 150.027.667 170.672-1.765 186.511-4.572 29.778-15.139 63.474-29.841 95.149-16.339 35.204-37.133 57.829-97.881 106.501-29.471 23.613-35.712 28.208-150.307 110.681-14.85 10.687-35.843 25.897-46.65 33.8a7204 7204 0 0 1-39 28.279c-23.94 17.211-24.85 18.026-24.85 22.27 0 2.968.885 3.993 8.693 10.062 4.781 3.717 15.589 12.279 24.018 19.027 18.359 14.698 34.596 26.811 46.689 34.83 8.204 5.439 9.338 5.901 14.5 5.901 6.564 0 2.247 2.722 52.949-33.386 19.058-13.573 48.601-34.476 65.651-46.451 129.015-90.618 178.931-131.613 219.355-180.149 28.739-34.505 51.749-84.068 66.628-143.514 13.2-52.741 14.498-71.488 13.391-193.5-1.025-113.106-.967-185.624.151-189.652 1.091-3.927 4.78-7.602 14.778-14.721 13.426-9.561 28.147-27.092 36.203-43.114 14.669-29.173 18.208-66.805 8.948-95.152-12.005-36.747-38.503-65.752-72.655-79.527-19.745-7.965-46.443-11.187-64.799-7.82m256.597 291.029c-74.817 13.151-123.384 91.108-100.086 160.65 8.538 25.482 24.726 48.019 46.77 65.111 15.484 12.004 15.252 10.398 13.306 92.196-1.405 59.084-4.483 87.026-13.549 123-15.656 62.121-39.628 102.073-95.038 158.395-32.13 32.658-31.732 32.439-51.051 28.091-27.038-6.086-50.791-2.79-79.003 10.961-35.401 17.255-58.142 44.543-68.197 81.832-2.457 9.113-2.612 11-2.48 30.177.182 26.162.457 25.461-16.067 40.966-46.914 44.018-89.496 95.654-105.74 128.22-9.867 19.781-11.503 19.347-34.283-9.091-25.345-31.641-56.743-60.731-97.928-90.731-10.312-7.512-25.837-19.253-34.5-26.092s-27.423-21.275-41.69-32.081c-101.051-76.54-116.656-91.026-129.111-119.855-13.101-30.321-9.319-65.335 9.724-90.017 5.735-7.434 27.768-28.501 34.593-33.076 10.249-6.871 29.598-21.208 35.269-26.132 3.044-2.644 7.435-5.777 9.757-6.961 4.11-2.097 20.198-13.332 31.233-21.812 16.155-12.415 60.82-45.697 69.479-51.773a2027 2027 0 0 0 20-14.259c5.497-3.98 20.12-14.291 32.495-22.911s30.386-21.602 40.024-28.847 23.588-17.367 31-22.494c50.883-35.198 88.729-81.503 103.581-126.734 9.383-28.576 12.375-48.38 13.037-86.276.656-37.616-.85-92.527-2.64-96.25-2.87-5.967-7.104-2.375-12.407 10.526-17.911 43.575-46.929 87.537-80.595 122.101-26.883 27.6-42.832 41.042-94 79.225-76.459 57.055-82.63 61.586-149 109.405-39.593 28.527-63.468 46.012-80.5 58.955-9.9 7.523-25.875 19.666-35.5 26.983-44.764 34.03-63.686 55.463-82.908 93.906-14.649 29.3-20.742 53.803-21.795 87.649-1.497 48.112 11.464 89.335 40.084 127.492 18.114 24.15 69.328 69.204 131.619 115.786 103.156 77.143 140.66 109.381 171.272 147.222 42.7 52.784 59.257 102.532 66.231 199 2.127 29.422 2.027 34.272-.768 37.522-3.481 4.046-5.351 3.011-29.338-16.231-12.043-9.661-34.272-26.849-49.397-38.195s-44.15-33.912-64.5-50.145a37026 37026 0 0 0-68.488-54.483c-17.318-13.732-36.05-29.469-41.626-34.97-36.32-35.831-42.165-81.637-14.974-117.333 5.697-7.479 6.465-9.961 4.29-13.873-.676-1.215-14.52-12.061-30.765-24.102s-36.04-26.964-43.987-33.161-15.573-11.694-16.945-12.216c-5.974-2.274-9.963 2.143-24.013 26.593-37.223 64.777-40.88 134.804-10.241 196.094 9.344 18.692 13.553 24.092 22.999 29.507 2.887 1.656 5.252 3.119 5.253 3.252s1.361 3.57 3.019 7.64c4.181 10.26 10.613 18.84 20.103 26.814a8941 8941 0 0 1 23.226 19.635c8.332 7.067 21.224 17.384 28.649 22.926a61255 61255 0 0 0 21.371 15.947c4.33 3.228 10.63 7.124 14 8.658 3.661 1.666 7.669 4.501 9.955 7.041 6.788 7.546 16.916 16.169 22.045 18.768 2.749 1.393 7.272 4.097 10.05 6.008 4.679 3.219 5.438 3.427 10.274 2.823 8.971-1.121 15.42 3.592 18.903 13.814.953 2.798 3.009 5.846 5.236 7.762 2.016 1.736 5.241 5.089 7.166 7.451 4.146 5.089 19.383 17.438 26.606 21.565 2.809 1.605 8.442 5.949 12.518 9.653 18.512 16.824 42.017 33.598 50.707 36.186 12.501 3.723 16.224 10.688 14.262 26.686-3.852 31.402 3.774 67.347 16.942 79.864 2.315 2.2 5.805 6.475 7.756 9.5 6.117 9.483 15.052 20.752 18.273 23.046 2.04 1.452 5.425 2.459 9.936 2.954 8.371.919 11.577 3.014 17.137 11.201 4.658 6.859 13.009 11.558 28.381 15.968 9.434 2.706 40.486 2.962 46.743.386 1.781-.734 6.164-1.652 9.739-2.04 4.572-.496 8.32-1.711 12.639-4.097 3.376-1.865 8.551-3.889 11.5-4.497 10.377-2.139 25.749-12.863 38.261-26.69 35.365-39.084 42.505-91.146 19.179-139.833-9.827-20.512-20.017-33.325-36.138-45.443-11.399-8.567-14.134-11.728-14.969-17.296-.358-2.382-.446-35.118-.197-72.745.488-73.609.55-74.624 6.784-111.236 10.575-62.102 44.277-119.506 108.221-184.331 12.561-12.735 24.14-23.692 25.73-24.351 2.539-1.052 3.723-.831 9.691 1.802 7.219 3.184 26.62 7.245 34.486 7.218 2.577-.009 8.427-.913 13-2.009 4.572-1.096 10.947-1.996 14.165-2 10.254-.012 30.219-7.688 44.899-17.262 26.331-17.173 41.171-42.43 47.771-81.304 2.074-12.222 2.126-13.782.924-28.069-1.604-19.068-2.136-18.044 17.6-33.844 44.423-35.563 81.164-81.952 108.927-137.528 3.642-7.29 6.256-10 9.645-10 3.008 0 4.212 1.267 14.802 15.585 14.953 20.216 42.365 48.613 64.648 66.972 19.555 16.112 45.786 37.198 62.843 50.518 8.751 6.834 22.476 17.571 30.5 23.861 22.862 17.921 39.685 29.9 51.089 36.377 5.775 3.28 12.899 8.151 15.831 10.825 2.931 2.674 5.887 4.862 6.568 4.862s3.556.688 6.39 1.53c4.925 1.462 5.461 1.985 12.198 11.883 6.189 9.092 8.989 12.016 22.984 24.001 17.529 15.01 26.688 25.462 32.901 37.544 16.395 31.883 13.857 67.462-6.959 97.574-16.826 24.34-60.397 58.387-223.913 174.97-100.006 71.302-117.193 85.051-136.901 109.512-43.823 54.391-60.027 102.676-60.066 178.986-.009 19.247 3.472 78.57 4.82 82.114 2.571 6.76 6.664 3.788 12.168-8.836 22.714-52.098 62.761-111.156 101.933-150.322 21.374-21.371 69.108-59.327 110.546-87.9 8.25-5.689 17.7-12.432 21-14.984 3.3-2.553 9.825-7.397 14.5-10.764 12.043-8.675 13.865-10.837 14.998-17.796 1.014-6.23 3.321-9.568 8.46-12.24 1.627-.846 6.462-4.391 10.746-7.877 11.792-9.599 13.687-10.33 22.993-8.873 6.183.968 8.194-.12 32.171-17.406a14176 14176 0 0 1 43.132-30.929c13.2-9.425 28.687-20.635 34.417-24.912a46753 46753 0 0 1 30.5-22.731c15.314-11.405 23.532-18.41 34.606-29.5 18.028-18.053 21.745-23.301 23.123-32.646 1.572-10.661 3.31-13.396 9.85-15.505 6.577-2.12 8.295-4.089 14.34-16.425 32.152-65.621 21.852-155.086-25.064-217.695-14.285-19.063-46.711-47.905-89.284-79.415-7.431-5.5-23.856-18.247-36.5-28.326s-34.238-27.033-47.988-37.676c-86.617-67.048-100.08-78.776-122.656-106.856-28.517-35.47-40.409-56.624-53.356-94.919-12.872-38.074-16.463-63.276-16.479-115.676-.012-37.423-.639-36.949 24.178-18.294 7.872 5.918 22.863 17.342 33.313 25.387s28.45 21.878 40 30.741 27.975 21.835 36.5 28.827c24.429 20.036 65.699 51.897 87 67.167 27.755 19.896 38.653 31.836 49.992 54.767 8.155 16.494 9.479 21.899 9.43 38.5-.056 19.251-4.135 34.148-13.264 48.446-7.352 11.514-1.232 19.987 19.104 26.451 5.369 1.707 10.544 3.107 11.5 3.113 3.109.017 11.66 4.663 14.941 8.118 2.261 2.38 3.637 5.229 4.676 9.684 1.805 7.738 3.134 9.833 9.742 15.356 2.85 2.383 7.043 5.988 9.317 8.012s6.419 4.581 9.211 5.682 6.601 2.93 8.464 4.066c7.428 4.528 12.415 1.458 21.587-13.288 38.338-61.643 44.387-124.974 18.029-188.752-16.642-40.266-41.069-69.99-86.244-104.948-13.192-10.207-39.96-30.941-59.485-46.074s-42.25-32.682-50.5-38.998c-13.8-10.565-22.381-17.267-57.5-44.907-6.875-5.41-23.975-18.696-38-29.523-27.34-21.106-32.364-25.413-34.589-29.65-1.054-2.009-1.53-8.108-1.833-23.5-.554-28.088-3.243-40.693-12.705-59.562-16.217-32.34-38.811-52.981-71.496-65.315-17.179-6.483-43.464-9-61.28-5.868m144.253 756.78c-2.667 1.828-12.95 9.167-22.85 16.309-9.9 7.141-25.297 18.229-34.216 24.64-8.919 6.41-21.744 15.879-28.5 21.042-14.188 10.842-63.238 46.555-88.784 64.643-96.962 68.655-139.583 107.618-173.974 159.043-25.161 37.623-39.716 70.291-51.018 114.5-13.276 51.936-14.09 66.656-13.979 252.762.072 121.114-.088 136.179-1.468 138.285-2.263 3.454-5.129 5.951-13.914 12.124-37.36 26.252-57.632 80.149-47.139 125.329 2.928 12.609 5.307 16.239 13.205 20.144 6.683 3.305 6.936 3.577 16.521 17.856 10.457 15.578 12.506 17.759 23.266 24.774 13.081 8.528 28.025 14.588 48.5 19.669 12.846 3.188 15.936 3.517 34.758 3.694l16.257.153 5.15-3.202c6.724-4.18 9.705-4.685 15.219-2.579 5.725 2.186 6.474 1.976 22.122-6.221 16.896-8.852 25.316-16.914 32.021-30.661 2.448-5.02 6.256-12.052 8.462-15.627 10.24-16.594 14.991-43.79 11.628-66.573-5.102-34.568-21.045-63.34-46.617-84.125-15.644-12.716-14.38-8.569-15.179-49.79-.755-38.89-.134-253.852.773-268.012.318-4.95 1.66-14.885 2.984-22.078 1.323-7.193 3.291-18.893 4.372-26 1.35-8.873 3.239-16.369 6.029-23.922 2.234-6.05 5.435-14.825 7.112-19.5 4.441-12.378 12.814-28.944 20.907-41.366 3.894-5.977 7.957-12.586 9.029-14.687s7.167-9.361 13.545-16.133c6.906-7.333 14.697-16.964 19.262-23.81 10.487-15.727 12.336-17.691 17.447-18.537 5.889-.976 7.461-1.931 13.719-8.337 3.025-3.096 7.75-6.864 10.5-8.372s16.025-10.843 29.5-20.744 31.025-22.645 39-28.32c21.765-15.488 50.363-36.134 60.5-43.678 4.95-3.684 14.4-10.659 21-15.501s18.075-13.624 25.5-19.515c12.265-9.732 41.118-30.739 72.5-52.787 18.03-12.667 19.37-14.239 16.98-19.922-1.2-2.856-13.622-12.546-70.805-55.234-20.565-15.352-20.942-15.477-29.325-9.734"/></svg>